# Blender v2.78 (sub 0) OBJ File: 'ponte_aperto_2.blend'
# www.blender.org
mtllib ponte_aperto_2.mtl
o nodebox1
v 1.500000 -0.485968 -1.300676
v 1.500000 0.844072 1.388375
v 1.500000 1.012137 1.305247
v 1.500000 -0.317903 -1.383803
v -1.500000 -0.485968 -1.300676
v -1.500000 0.844072 1.388375
v -1.500000 1.012137 1.305247
v -1.500000 -0.317903 -1.383803
vt 0.8808 0.7990
vt 0.8808 0.0329
vt 0.8943 0.0112
vt 0.8943 0.8046
vt 0.0267 0.9849
vt 0.0267 0.0378
vt 0.0096 0.0109
vt 0.0096 0.9918
vt 0.1009 0.8046
vt 0.1148 0.7990
vt 0.9739 0.0378
vt 0.9905 0.0109
vt 0.9739 0.9849
vt 0.9905 0.9918
vn -1.0000 0.0000 0.0000
vn 0.0000 0.4433 0.8964
vn 0.0000 0.4433 0.8963
vn 0.0000 -0.8964 0.4433
usemtl none.001
s off
f 1/1/1 2/2/1 3/3/1 4/4/1
f 5/5/1 6/6/1 7/7/1 8/8/1
f 1/1/2 4/4/2 8/9/2 5/10/2
f 2/11/3 3/12/3 7/7/3 6/6/3
f 1/13/4 2/11/4 6/6/4 5/5/4
f 4/14/4 3/12/4 7/7/4 8/8/4
